<svg width="249" height="49" viewBox="0 0 249 49" fill="none" xmlns="http://www.w3.org/2000/svg">
<path d="M194 23.5L192.533 24.6C192.187 24.8596 191.766 25 191.333 25H187.975C187.65 25.0001 187.332 25.1009 187.066 25.2884C186.8 25.4759 186.599 25.7411 186.489 26.0476C186.38 26.354 186.368 26.6868 186.455 27.0004C186.542 27.3139 186.724 27.5929 186.976 27.799L188.976 29.435C189.751 30.0688 190.354 30.8862 190.732 31.813C191.11 32.7397 191.25 33.7463 191.14 34.741L191.12 34.921C191.04 35.637 190.865 36.3391 190.597 37.008L190 38.5M177 28L180.238 27.46C180.552 27.4076 180.874 27.4309 181.177 27.528C181.481 27.6252 181.756 27.7933 181.982 28.0185C182.207 28.2437 182.375 28.5193 182.472 28.8226C182.569 29.1258 182.592 29.4479 182.54 29.762L182.405 30.569C182.288 31.2729 182.4 31.9957 182.724 32.6315C183.048 33.2673 183.567 33.7826 184.205 34.102C184.715 34.3564 185.122 34.7772 185.36 35.2948C185.598 35.8123 185.652 36.3956 185.513 36.948L185 39" stroke="#454446"/>
<path d="M186.5 39C191.747 39 196 34.7467 196 29.5C196 24.2533 191.747 20 186.5 20C181.253 20 177 24.2533 177 29.5C177 34.7467 181.253 39 186.5 39Z" stroke="#454446"/>
<path d="M1.45185 26.6597L15.448 8.69381C16.542 7.28781 18.594 8.16181 18.594 10.0338V23.9397C18.594 25.0597 19.398 25.9697 20.3921 25.9697H27.2001C28.7462 25.9697 29.5702 28.0297 28.5481 29.3417L14.552 47.3076C13.458 48.7116 11.406 47.8376 11.406 45.9656V32.0597C11.406 30.9397 10.6 30.0297 9.60794 30.0297H2.79987C1.25385 30.0297 0.429842 27.9717 1.45185 26.6597Z" stroke="white" stroke-width="1.5" stroke-linecap="round" stroke-linejoin="round"/>
<path d="M41.8693 9.90909H48.3182L56.9545 30.9886H57.2955L65.9318 9.90909H72.3807V39H67.3239V19.0142H67.054L59.0142 38.9148H55.2358L47.196 18.9716H46.9261V39H41.8693V9.90909ZM87.5511 39.4261C85.3636 39.4261 83.4744 38.9716 81.8835 38.0625C80.3021 37.1439 79.0852 35.8466 78.233 34.1705C77.3807 32.4848 76.9545 30.5009 76.9545 28.2188C76.9545 25.9744 77.3807 24.0047 78.233 22.3097C79.0947 20.6051 80.2973 19.2794 81.8409 18.3324C83.3845 17.3759 85.1979 16.8977 87.2812 16.8977C88.6259 16.8977 89.8949 17.1155 91.0881 17.5511C92.2907 17.9773 93.3513 18.6402 94.2699 19.5398C95.1979 20.4394 95.9271 21.5852 96.4574 22.9773C96.9877 24.3598 97.2528 26.0076 97.2528 27.9205V29.4972H79.3693V26.0312H92.3239C92.3144 25.0464 92.1013 24.1705 91.6847 23.4034C91.268 22.6269 90.6856 22.0161 89.9375 21.571C89.1989 21.1259 88.3371 20.9034 87.3523 20.9034C86.3011 20.9034 85.3778 21.1591 84.5824 21.6705C83.7869 22.1723 83.1667 22.8352 82.7216 23.6591C82.286 24.4735 82.0634 25.3684 82.054 26.3438V29.3693C82.054 30.6383 82.286 31.7273 82.75 32.6364C83.214 33.536 83.8627 34.2273 84.696 34.7102C85.5294 35.1837 86.5047 35.4205 87.6222 35.4205C88.3703 35.4205 89.0473 35.3163 89.6534 35.108C90.2595 34.8902 90.785 34.5729 91.2301 34.1562C91.6752 33.7396 92.0114 33.2235 92.2386 32.608L97.0398 33.1477C96.7367 34.4167 96.1591 35.5246 95.3068 36.4716C94.464 37.4091 93.3845 38.1383 92.0682 38.6591C90.7519 39.1705 89.2462 39.4261 87.5511 39.4261ZM107.881 39.4403C106.499 39.4403 105.254 39.1941 104.146 38.7017C103.047 38.1998 102.176 37.4612 101.532 36.4858C100.897 35.5104 100.58 34.3078 100.58 32.8778C100.58 31.6468 100.808 30.6288 101.262 29.8239C101.717 29.0189 102.337 28.375 103.123 27.892C103.909 27.4091 104.794 27.0445 105.779 26.7983C106.773 26.5426 107.801 26.358 108.862 26.2443C110.14 26.1117 111.177 25.9934 111.972 25.8892C112.768 25.7756 113.345 25.6051 113.705 25.3778C114.075 25.1411 114.259 24.7765 114.259 24.2841V24.1989C114.259 23.1288 113.942 22.3002 113.308 21.7131C112.673 21.1259 111.759 20.8324 110.566 20.8324C109.307 20.8324 108.308 21.107 107.569 21.6562C106.84 22.2055 106.347 22.8542 106.092 23.6023L101.29 22.9205C101.669 21.5947 102.294 20.4867 103.165 19.5966C104.037 18.697 105.102 18.0246 106.362 17.5795C107.621 17.125 109.013 16.8977 110.538 16.8977C111.589 16.8977 112.635 17.0208 113.677 17.267C114.719 17.5133 115.67 17.9205 116.532 18.4886C117.394 19.0473 118.085 19.8097 118.606 20.7756C119.136 21.7415 119.401 22.9489 119.401 24.3977V39H114.458V36.0028H114.288C113.975 36.6089 113.535 37.1771 112.967 37.7074C112.408 38.2282 111.702 38.6496 110.85 38.9716C110.007 39.2841 109.018 39.4403 107.881 39.4403ZM109.217 35.6619C110.249 35.6619 111.144 35.4583 111.901 35.0511C112.659 34.6345 113.241 34.0852 113.648 33.4034C114.065 32.7216 114.273 31.9782 114.273 31.1733V28.6023C114.112 28.7348 113.838 28.858 113.45 28.9716C113.071 29.0852 112.645 29.1847 112.171 29.2699C111.698 29.3551 111.229 29.4309 110.765 29.4972C110.301 29.5634 109.898 29.6203 109.558 29.6676C108.79 29.7718 108.104 29.9422 107.498 30.179C106.892 30.4157 106.414 30.7472 106.063 31.1733C105.713 31.59 105.538 32.1297 105.538 32.7926C105.538 33.7396 105.883 34.4545 106.575 34.9375C107.266 35.4205 108.147 35.6619 109.217 35.6619ZM135.467 17.1818V21.1591H122.924V17.1818H135.467ZM126.021 11.9545H131.163V32.4375C131.163 33.1288 131.267 33.6591 131.475 34.0284C131.693 34.3883 131.977 34.6345 132.327 34.767C132.678 34.8996 133.066 34.9659 133.492 34.9659C133.814 34.9659 134.108 34.9422 134.373 34.8949C134.647 34.8475 134.856 34.8049 134.998 34.767L135.864 38.7869C135.59 38.8816 135.197 38.9858 134.685 39.0994C134.183 39.2131 133.568 39.2794 132.839 39.2983C131.551 39.3362 130.391 39.142 129.359 38.7159C128.326 38.2803 127.507 37.608 126.901 36.6989C126.305 35.7898 126.011 34.6534 126.021 33.2898V11.9545ZM145.882 39L137.672 9.90909H143.339L148.581 31.2869H148.851L154.447 9.90909H159.604L165.214 31.3011H165.47L170.712 9.90909H176.379L168.169 39H162.97L157.146 18.5881H156.919L151.081 39H145.882ZM199.65 39V17.1818H204.636V20.8182H204.863C205.261 19.5587 205.942 18.5881 206.908 17.9062C207.884 17.215 208.996 16.8693 210.246 16.8693C210.531 16.8693 210.848 16.8835 211.198 16.9119C211.558 16.9309 211.856 16.964 212.093 17.0114V21.7415C211.875 21.6657 211.53 21.5994 211.056 21.5426C210.592 21.4763 210.142 21.4432 209.707 21.4432C208.769 21.4432 207.926 21.6468 207.178 22.054C206.44 22.4517 205.857 23.0057 205.431 23.7159C205.005 24.4261 204.792 25.2453 204.792 26.1733V39H199.65ZM220.651 9.90909V39H215.509V9.90909H220.651ZM234.036 39.3835C232.321 39.3835 230.787 38.9432 229.433 38.0625C228.079 37.1818 227.009 35.9034 226.223 34.2273C225.437 32.5511 225.044 30.5152 225.044 28.1193C225.044 25.6951 225.442 23.6496 226.237 21.983C227.042 20.3068 228.126 19.0426 229.49 18.1903C230.854 17.3286 232.374 16.8977 234.05 16.8977C235.328 16.8977 236.379 17.1155 237.203 17.5511C238.027 17.9773 238.68 18.4934 239.163 19.0994C239.646 19.696 240.02 20.2595 240.286 20.7898H240.499V9.90909H245.655V39H240.598V35.5625H240.286C240.02 36.0928 239.637 36.6562 239.135 37.2528C238.633 37.84 237.97 38.3419 237.146 38.7585C236.322 39.1752 235.286 39.3835 234.036 39.3835ZM235.47 35.1648C236.559 35.1648 237.487 34.8712 238.254 34.2841C239.021 33.6875 239.604 32.8589 240.001 31.7983C240.399 30.7377 240.598 29.5019 240.598 28.0909C240.598 26.6799 240.399 25.4536 240.001 24.4119C239.613 23.3703 239.036 22.5606 238.268 21.983C237.511 21.4053 236.578 21.1165 235.47 21.1165C234.324 21.1165 233.368 21.4148 232.601 22.0114C231.834 22.608 231.256 23.4318 230.868 24.483C230.48 25.5341 230.286 26.7367 230.286 28.0909C230.286 29.4545 230.48 30.6714 230.868 31.7415C231.266 32.8021 231.848 33.6402 232.615 34.2557C233.392 34.8617 234.343 35.1648 235.47 35.1648Z" fill="white"/>
</svg>
